HIERARCHY
ROOT Hips
{
  OFFSET -102.467 93.6631 130.069
  CHANNELS 6 Xposition Yposition Zposition Zrotation Xrotation Yrotation
  JOINT LeftUpLeg
  {
    OFFSET 8.64259 1.95398 -2.38835
    CHANNELS 3 Zrotation Xrotation Yrotation
    JOINT LeftLeg
    {
      OFFSET 43.7702 0 0
      CHANNELS 3 Zrotation Xrotation Yrotation
      JOINT LeftFoot
      {
        OFFSET 40.6238 0 0
        CHANNELS 3 Zrotation Xrotation Yrotation
        JOINT LeftToeBase
        {
          OFFSET 12.7242 0 0
          CHANNELS 3 Zrotation Xrotation Yrotation
          End Site
          {
            OFFSET 0 0 0
          }
        }
      }
    }
  }
  JOINT RightUpLeg
  {
    OFFSET -8.2249 1.95398 -2.59336
    CHANNELS 3 Zrotation Xrotation Yrotation
    JOINT RightLeg
    {
      OFFSET 43.5653 0 0
      CHANNELS 3 Zrotation Xrotation Yrotation
      JOINT RightFoot
      {
        OFFSET 40.6238 0 0
        CHANNELS 3 Zrotation Xrotation Yrotation
        JOINT RightToeBase
        {
          OFFSET 12.7242 0 0
          CHANNELS 3 Zrotation Xrotation Yrotation
          End Site
          {
            OFFSET 0 0 0
          }
        }
      }
    }
  }
  JOINT Spine
  {
    OFFSET 0.165834 0.87714 6.61349
    CHANNELS 3 Zrotation Xrotation Yrotation
    JOINT Spine1
    {
      OFFSET 7.38963 1.71661e-005 0
      CHANNELS 3 Zrotation Xrotation Yrotation
      JOINT Spine2
      {
        OFFSET 11.9445 1.14441e-005 0
        CHANNELS 3 Zrotation Xrotation Yrotation
        JOINT Spine3
        {
          OFFSET 14.7254 4.19617e-005 0
          CHANNELS 3 Zrotation Xrotation Yrotation
          JOINT Spine4
          {
            OFFSET 10.9679 0 0
            CHANNELS 3 Zrotation Xrotation Yrotation
            JOINT RightShoulder
            {
              OFFSET 2.46616 -1.6653 3.69651
              CHANNELS 3 Zrotation Xrotation Yrotation
              JOINT RightArm
              {
                OFFSET 13.0012 0 0
                CHANNELS 3 Zrotation Xrotation Yrotation
                JOINT RightForeArm
                {
                  OFFSET 28.7848 1.52588e-005 0
                  CHANNELS 3 Zrotation Xrotation Yrotation
                  JOINT RightHand
                  {
                    OFFSET 26.5688 1.52588e-005 0
                    CHANNELS 3 Zrotation Xrotation Yrotation
                    End Site
                    {
                      OFFSET 0 0 0
                    }
                  }
                }
              }
            }
            JOINT LeftShoulder
            {
              OFFSET 2.38034 -1.29275 -3.7523
              CHANNELS 3 Zrotation Xrotation Yrotation
              JOINT LeftArm
              {
                OFFSET 16.3182 6.10351e-005 0
                CHANNELS 3 Zrotation Xrotation Yrotation
                JOINT LeftForeArm
                {
                  OFFSET 27.0901 0 0
                  CHANNELS 3 Zrotation Xrotation Yrotation
                  JOINT LeftHand
                  {
                    OFFSET 24.5451 1.52588e-005 0
                    CHANNELS 3 Zrotation Xrotation Yrotation
                    End Site
                    {
                      OFFSET 0 0 0
                    }
                  }
                }
              }
            }
            JOINT Neck
            {
              OFFSET 5.0226 -0.0266342 0
              CHANNELS 3 Zrotation Xrotation Yrotation
              JOINT Head
              {
                OFFSET 6.69363 2.86102e-005 0
                CHANNELS 3 Zrotation Xrotation Yrotation
                End Site
                {
                  OFFSET 0 0 0
                }
              }
            }
          }
        }
      }
    }
  }
}
MOTION
Frames:	9
Frame Time:	0.0416667
294.498 63.8136 292.289 97.8582 -52.2753 99.2741 -157.988 11.5661 105.156 -94.0069 2.5596 -1.10085 130.686 23.8106 -11.6416 66.0607 4.9737 23.1526 -161.197 -55.1505 101.7 -1.64878 -64.841 0.276318 6.4539 4.81644 64.9368 115.273 48.7999 62.6913 0.828301 14.6811 -90.2355 -2.4879 1.56999 -0.326943 -14.1579 1.55396 -0.396385 -36.7006 1.59636 0.157831 -16.688 1.59637 0.157829 102.321 12.2556 -80.8924 97.0822 -9.28397 -14.771 -14.0582 10.1829 -123.173 3.12754 4.32448 93.461 -80.7833 2.95253 85.0036 76.442 16.3111 -77.5199 -146.953 -13.5231 -108.416 32.5354 -27.2307 -79.4171 160.948 -17.777 10.087 -119.049 -18.088 -3.61293 
294.72 63.5155 292.504 97.6781 -52.337 99.1859 -157.968 11.4891 105.174 -94.3684 1.80989 -0.841544 130.55 22.7238 -12.3462 67.9977 5.25979 23.3497 -161.001 -55.2493 101.87 -1.63428 -65.1934 0.279989 6.62997 5.05952 64.6821 115.273 48.9855 62.8534 0.841667 14.67 -90.2349 -2.46586 1.5924 -0.325425 -14.1359 1.57654 -0.395295 -36.6789 1.61665 0.168063 -16.6662 1.61665 0.168065 102.343 12.1546 -80.7456 97.1193 -9.56699 -14.3907 -14.1032 10.3823 -123.629 3.25825 4.47462 93.4415 -80.7889 2.95706 84.9798 76.8933 16.7546 -77.3827 -146.469 -13.2411 -108.43 33.0186 -26.5741 -77.1955 160.918 -17.2771 10.0698 -118.945 -18.0642 -3.68551 
295.351 62.6762 293.099 97.1641 -52.5031 98.9321 -157.937 11.2838 105.286 -95.3375 0.11034 -0.207387 129.887 19.9114 -14.0749 73.3635 5.87585 23.4219 -160.454 -55.5253 102.339 -1.5997 -66.1989 0.286728 7.13295 5.74372 63.9559 115.286 49.4582 63.2599 0.872763 14.6381 -90.2321 -2.40203 1.6547 -0.316374 -14.072 1.63918 -0.388915 -36.6156 1.67326 0.195706 -16.6029 1.67328 0.195705 102.408 11.8641 -80.3389 97.2326 -10.3759 -13.3034 -14.2466 10.9689 -124.893 3.61761 4.88476 93.3612 -80.806 2.96685 84.9084 77.9783 17.9657 -77.0101 -145.125 -12.5911 -108.494 34.0396 -24.4947 -71.0235 160.82 -15.8584 10.0232 -118.633 -18.0097 -3.8865 
296.338 61.3777 293.982 96.352 -52.7407 98.5212 -157.94 10.9957 105.576 -96.7018 -1.1805 0.529287 128.13 16.5911 -15.7985 81.4544 6.26406 22.4861 -159.635 -55.9585 103.038 -1.54093 -67.8006 0.290642 7.92526 6.80153 62.8113 115.354 50.0522 63.7383 0.918959 14.5863 -90.2282 -2.29855 1.74799 -0.303841 -13.9684 1.73292 -0.38051 -36.5129 1.75845 0.235711 -16.5003 1.75847 0.235709 102.508 11.4043 -79.7295 97.4382 -11.6602 -11.5827 -14.5211 11.9532 -126.784 4.1447 5.47748 93.1748 -80.8362 2.9742 84.7867 79.2241 19.7515 -76.4502 -143.289 -11.8357 -108.663 34.5121 -20.9005 -62.0504 160.636 -13.6583 9.95696 -118.103 -17.968 -4.17959 
297.61 59.6934 295.056 95.2733 -53.015 97.9565 -157.974 10.6473 106.038 -98.2009 -1.7302 1.13422 125.13 13.85 -17.1305 91.4863 6.02726 20.5141 -158.617 -56.5163 103.902 -1.47078 -69.9574 0.29981 8.982 8.15343 61.2756 115.546 50.6159 64.111 0.975877 14.5154 -90.2242 -2.15707 1.86261 -0.290594 -13.8267 1.84801 -0.372339 -36.3725 1.86381 0.282831 -16.3598 1.86379 0.282814 102.64 10.7969 -78.9747 97.7727 -13.3745 -9.29131 -14.9773 13.3714 -129.114 4.77242 6.1654 92.8333 -80.8812 2.96974 84.6116 80.2645 21.9497 -75.7413 -141.493 -11.1004 -108.987 33.4031 -16.2413 -51.8399 160.343 -10.8281 9.88495 -117.347 -17.9951 -4.51894 
299.07 57.697 296.234 93.9583 -53.2918 97.2421 -158 10.2006 106.577 -99.6301 2.36108 1.46558 120.261 14.9116 -14.3917 102.38 5.58186 18.6746 -157.452 -57.1732 104.901 -1.37266 -72.646 0.316009 10.2698 9.7196 59.3961 115.931 51.0492 64.2448 1.039 14.4265 -90.2209 -1.97949 1.98933 -0.279282 -13.649 1.97513 -0.366605 -36.1962 1.98126 0.331749 -16.1835 1.98127 0.331739 102.8 10.0643 -78.1258 98.2923 -15.4639 -6.48507 -15.6651 15.2669 -131.705 5.43729 6.86336 92.2946 -80.9423 2.9428 84.3819 80.9011 24.4389 -74.9196 -139.968 -10.4775 -109.424 30.6549 -11.5365 -41.7669 159.922 -7.52648 9.8243 -116.36 -18.1425 -4.85713 
300.598 55.486 297.426 92.4409 -53.5381 96.3892 -158.014 9.5641 107.124 -100.719 10.5259 1.49635 113.426 19.3844 -7.44772 112.94 6.03846 18.1808 -156.185 -57.8745 106.018 -1.2422 -75.8586 0.348652 11.7531 11.4088 57.2339 116.552 51.2946 64.0613 1.10402 14.3211 -90.2196 -1.76884 2.11944 -0.272943 -13.4381 2.10538 -0.366003 -35.9869 2.10345 0.37694 -15.9743 2.10344 0.376941 102.984 9.23161 -77.2269 99.0648 -17.8525 -3.21918 -16.6245 17.672 -134.381 6.0832 7.49508 91.5253 -81.0205 2.88172 84.1004 81.0432 27.1169 -74.0213 -138.55 -10.1081 -109.867 27.0412 -7.67304 -32.7299 159.36 -3.91905 9.79404 -115.157 -18.4469 -5.15026 
302.088 53.2054 298.542 90.7634 -53.722 95.421 -158.066 8.66926 107.701 -101.253 22.1822 1.32448 103.876 25.2922 3.61423 122.217 7.67422 18.778 -154.893 -58.5361 107.207 -1.07715 -79.6091 0.426498 13.3996 13.1227 54.8743 117.411 51.3258 63.5409 1.16729 14.2015 -90.2218 -1.52969 2.24481 -0.275325 -13.1988 2.23053 -0.373915 -35.7492 2.22372 0.412412 -15.7365 2.22373 0.412398 103.187 8.32744 -76.3143 100.155 -20.437 0.444355 -17.8803 20.5883 -136.966 6.66456 8.001 90.4988 -81.1152 2.77369 83.7752 80.6466 29.8807 -73.0824 -137 -10.1481 -110.246 23.3581 -4.89282 -25.1665 158.648 -0.1734 9.81256 -113.768 -18.9215 -5.36324 
303.494 51.0286 299.527 88.9771 -53.8149 94.3762 -158.177 7.57653 108.33 -101.148 34.8021 1.10512 92.4414 29.3108 16.237 129.923 9.12932 19.1031 -153.654 -59.0936 108.405 -0.761438 -83.9059 0.652044 15.1673 14.7791 52.4357 118.46 51.1441 62.7255 1.22566 14.0709 -90.2295 -1.26832 2.35851 -0.290863 -12.9372 2.34341 -0.394447 -35.4892 2.33682 0.431821 -15.4766 2.33683 0.431814 103.403 7.38108 -75.4157 101.607 -23.0891 4.43275 -19.4366 23.9707 -139.295 7.15024 8.34402 89.1933 -81.225 2.60512 83.4197 79.6693 32.6183 -72.1348 -135.219 -10.738 -110.55 20.0372 -3.02051 -19.0834 157.783 3.55769 9.89425 -112.232 -19.552 -5.47537 
